<mxfile host="www.draw.io" modified="2019-12-17T02:12:33.498Z" agent="Mozilla/5.0 (X11; Linux x86_64) AppleWebKit/537.36 (KHTML, like Gecko) Chrome/78.0.3904.108 Safari/537.36" etag="l6ONW8vtlhRxxYj22isx" version="12.4.2" type="github" pages="1">
  <diagram id="aLO9t9GviOjZu6mZyf2K" name="Page-1">
    <mxGraphModel dx="2258" dy="1860" grid="1" gridSize="10" guides="1" tooltips="1" connect="1" arrows="1" fold="1" page="1" pageScale="1" pageWidth="850" pageHeight="1100" math="0" shadow="0">
      <root>
        <mxCell id="0"/>
        <mxCell id="1" parent="0"/>
        <mxCell id="BH2lgGhETROauLyjcpll-10" value="server" style="rounded=1;whiteSpace=wrap;html=1;" vertex="1" parent="1">
          <mxGeometry x="-650" y="315" width="100" height="50" as="geometry"/>
        </mxCell>
        <mxCell id="BH2lgGhETROauLyjcpll-11" value="&lt;h1&gt;Server&lt;/h1&gt;&lt;p&gt;监听端口，提供服务端&lt;/p&gt;&lt;p&gt;解析 mysql 协议&lt;/p&gt;" style="text;html=1;strokeColor=none;fillColor=none;spacing=5;spacingTop=-20;whiteSpace=wrap;overflow=hidden;rounded=0;" vertex="1" parent="1">
          <mxGeometry x="-480" width="190" height="120" as="geometry"/>
        </mxCell>
        <mxCell id="BH2lgGhETROauLyjcpll-12" value="distsql" style="rounded=1;whiteSpace=wrap;html=1;" vertex="1" parent="1">
          <mxGeometry x="-20" y="330" width="120" height="60" as="geometry"/>
        </mxCell>
        <mxCell id="BH2lgGhETROauLyjcpll-13" value="kvclient" style="rounded=1;whiteSpace=wrap;html=1;" vertex="1" parent="1">
          <mxGeometry x="180" y="330" width="120" height="60" as="geometry"/>
        </mxCell>
        <mxCell id="BH2lgGhETROauLyjcpll-14" value="" style="rounded=0;comic=1;strokeWidth=2;endArrow=blockThin;html=1;fontFamily=Comic Sans MS;fontStyle=1;exitX=1;exitY=0.5;exitDx=0;exitDy=0;entryX=0;entryY=0.5;entryDx=0;entryDy=0;" edge="1" parent="1" source="BH2lgGhETROauLyjcpll-12" target="BH2lgGhETROauLyjcpll-13">
          <mxGeometry width="50" height="50" relative="1" as="geometry">
            <mxPoint x="200" y="330" as="sourcePoint"/>
            <mxPoint x="250" y="280" as="targetPoint"/>
          </mxGeometry>
        </mxCell>
        <mxCell id="BH2lgGhETROauLyjcpll-15" value="" style="rounded=1;whiteSpace=wrap;html=1;" vertex="1" parent="1">
          <mxGeometry x="580" y="330" width="120" height="60" as="geometry"/>
        </mxCell>
        <mxCell id="BH2lgGhETROauLyjcpll-17" value="" style="rounded=0;comic=1;strokeWidth=2;endArrow=blockThin;html=1;fontFamily=Comic Sans MS;fontStyle=1;exitX=1;exitY=0.5;exitDx=0;exitDy=0;entryX=0;entryY=0.5;entryDx=0;entryDy=0;" edge="1" parent="1" source="BH2lgGhETROauLyjcpll-13" target="BH2lgGhETROauLyjcpll-15">
          <mxGeometry width="50" height="50" relative="1" as="geometry">
            <mxPoint x="360" y="390" as="sourcePoint"/>
            <mxPoint x="410" y="340" as="targetPoint"/>
          </mxGeometry>
        </mxCell>
        <mxCell id="BH2lgGhETROauLyjcpll-18" value="RPC" style="text;html=1;align=center;verticalAlign=middle;resizable=0;points=[];;autosize=1;" vertex="1" parent="1">
          <mxGeometry x="420" y="330" width="40" height="20" as="geometry"/>
        </mxCell>
        <mxCell id="BH2lgGhETROauLyjcpll-21" value="ddl" style="rounded=1;whiteSpace=wrap;html=1;" vertex="1" parent="1">
          <mxGeometry x="-250" y="230" width="120" height="60" as="geometry"/>
        </mxCell>
        <mxCell id="BH2lgGhETROauLyjcpll-22" value="" style="rounded=0;comic=1;strokeWidth=2;endArrow=blockThin;html=1;fontFamily=Comic Sans MS;fontStyle=1;exitX=1;exitY=0.5;exitDx=0;exitDy=0;entryX=0;entryY=0.5;entryDx=0;entryDy=0;" edge="1" parent="1" source="BH2lgGhETROauLyjcpll-21" target="BH2lgGhETROauLyjcpll-12">
          <mxGeometry width="50" height="50" relative="1" as="geometry">
            <mxPoint x="30" y="300" as="sourcePoint"/>
            <mxPoint x="80" y="250" as="targetPoint"/>
          </mxGeometry>
        </mxCell>
        <mxCell id="BH2lgGhETROauLyjcpll-23" value="tidbdriver" style="rounded=1;whiteSpace=wrap;html=1;" vertex="1" parent="1">
          <mxGeometry x="-500" y="305" width="120" height="60" as="geometry"/>
        </mxCell>
      </root>
    </mxGraphModel>
  </diagram>
</mxfile>
